<?xml version="1.0" encoding="utf-8"?>
<!-- Generated by IcoMoon.io -->
<!DOCTYPE svg PUBLIC "-//W3C//DTD SVG 1.1//EN" "http://www.w3.org/Graphics/SVG/1.1/DTD/svg11.dtd">
<svg version="1.1" xmlns="http://www.w3.org/2000/svg" xmlns:xlink="http://www.w3.org/1999/xlink" width="512" height="512" viewBox="0 0 512 512">
<g>
</g>
	<path d="M445.716 256.021c0 104.601-85.125 189.696-189.757 189.696-104.591 0-189.686-85.105-189.686-189.696 0-104.622 85.105-189.737 189.686-189.737 104.642 0 189.757 85.115 189.757 189.737zM255.97 15.084c-132.823 0-240.886 108.103-240.886 240.937s108.073 240.896 240.886 240.896c132.874 0 240.958-108.063 240.958-240.896s-108.083-240.937-240.958-240.937z" fill="#8682ff" />
	<path d="M229.427 81.203h51.2v192.758h-51.2v-192.758z" fill="#8682ff" />
	<path d="M332.723 370.756l-99.571-98.534 36.021-36.4 99.571 98.535-36.022 36.4z" fill="#8682ff" />
</svg>
